<?xml version="1.0" standalone="no"?>
<!DOCTYPE svg PUBLIC "-//W3C//DTD SVG 20010904//EN"
 "http://www.w3.org/TR/2001/REC-SVG-20010904/DTD/svg10.dtd">
<svg version="1.0" xmlns="http://www.w3.org/2000/svg"
 width="512.000000pt" height="512.000000pt" viewBox="0 0 512.000000 512.000000"
 preserveAspectRatio="xMidYMid meet">
<metadata>
Created by potrace 1.11, written by Peter Selinger 2001-2013
</metadata>
<g transform="translate(0.000000,512.000000) scale(0.100000,-0.100000)"
fill="#000000" stroke="none">
<path d="M2455 5113 c-151 -26 -257 -66 -377 -140 -49 -29 -129 -78 -180 -109
-295 -181 -666 -335 -918 -380 -307 -56 -509 -244 -551 -514 -11 -73 -8 -1486
4 -1550 4 -19 11 -66 18 -105 67 -421 297 -874 637 -1255 157 -175 383 -382
577 -527 79 -59 335 -237 352 -244 4 -2 34 -20 66 -39 98 -59 206 -118 345
-187 l133 -66 113 56 c344 168 654 370 951 618 462 386 768 794 940 1253 39
105 89 289 100 366 4 24 8 47 10 50 15 23 20 271 20 905 l0 740 -24 74 c-31
94 -102 203 -172 264 -82 72 -204 129 -319 150 -271 50 -646 201 -935 377 -66
40 -163 99 -215 130 -91 54 -201 102 -265 114 -16 4 -41 9 -55 12 -30 6 -227
12 -255 7z m250 -418 c50 -16 203 -103 307 -176 15 -10 29 -19 32 -19 3 0 28
-14 57 -30 139 -83 370 -191 539 -255 149 -56 234 -81 402 -120 160 -37 198
-58 234 -132 l25 -51 -4 -734 -4 -733 -26 -115 c-93 -419 -302 -779 -661
-1135 -280 -278 -625 -531 -980 -718 l-68 -37 -57 33 c-31 18 -67 38 -81 45
-14 6 -34 18 -45 24 -10 7 -49 31 -85 52 -171 102 -389 255 -520 365 -233 195
-466 443 -599 639 -158 233 -281 517 -317 732 -2 14 -8 45 -13 70 -5 25 -10
52 -11 60 -1 8 -4 335 -7 725 -3 531 -1 721 8 753 23 83 86 123 249 158 41 8
82 17 90 19 40 8 236 72 325 106 232 87 545 248 758 392 151 101 301 128 452
82z"/>
<path d="M2480 4282 c-416 -266 -786 -436 -1205 -555 l-50 -14 0 -614 c1 -602
1 -616 23 -704 35 -141 60 -212 117 -330 139 -288 399 -593 722 -846 48 -38
93 -73 99 -78 12 -10 210 -143 305 -204 31 -21 61 -37 67 -37 22 0 329 202
422 277 8 7 31 25 51 40 263 206 490 451 637 688 93 151 170 334 201 480 6 28
14 64 18 80 4 17 8 302 10 634 3 488 2 606 -9 613 -7 4 -31 13 -53 19 -380
101 -865 327 -1234 576 -19 13 -37 23 -40 23 -3 0 -40 -22 -81 -48z m188 -487
c201 -118 638 -321 790 -366 l44 -13 -5 -445 c-4 -482 -6 -494 -67 -651 -113
-293 -396 -615 -782 -889 l-88 -62 -67 47 c-393 272 -693 613 -808 918 -59
157 -63 202 -65 661 l-1 423 28 7 c128 31 626 262 818 379 50 30 91 55 92 55
1 1 51 -28 111 -64z"/>
</g>
</svg>
